<?xml version="1.0" encoding="utf-8"?>
<!-- Generator: Adobe Illustrator 26.0.1, SVG Export Plug-In . SVG Version: 6.00 Build 0)  -->
<svg version="1.1" id="Layer_1" xmlns="http://www.w3.org/2000/svg" xmlns:xlink="http://www.w3.org/1999/xlink" x="0px" y="0px"
	 viewBox="0 0 500 500" style="enable-background:new 0 0 500 500;" xml:space="preserve">
<style type="text/css">
	.st0{fill:url(#SVGID_1_);}
	.st1{fill:#FFFFFF;}
</style>
<g>
	<linearGradient id="SVGID_1_" gradientUnits="userSpaceOnUse" x1="32.7044" y1="250" x2="467.2956" y2="250">
		<stop  offset="1.118836e-07" style="stop-color:#7242C0"/>
		<stop  offset="0.1759" style="stop-color:#6D46C1"/>
		<stop  offset="0.3672" style="stop-color:#6051C5"/>
		<stop  offset="0.5658" style="stop-color:#4A62CC"/>
		<stop  offset="0.7693" style="stop-color:#2C7BD5"/>
		<stop  offset="0.9749" style="stop-color:#059BE1"/>
		<stop  offset="1" style="stop-color:#009FE3"/>
	</linearGradient>
	<circle class="st0" cx="250" cy="250" r="217.3"/>
	<g>
		<path class="st1" d="M235.99,202.27c0.68-0.07,1.37-0.19,2.06-0.37c0,0,0,0,0,0c6.88-1.18,16.23-0.4,27.85,2.35
			c7.16,1.7,14.29-2.79,15.93-10.03c1.63-7.24-2.85-14.48-10.01-16.17c-15.48-3.67-28.17-4.53-38.78-2.63c0,0-0.01,0-0.01,0
			c-0.02,0-0.03,0.01-0.05,0.01c-0.11,0.02-0.22,0.05-0.33,0.07c-2.2,0.4-4.35,0.86-6.42,1.39c-27.64,7.06-43.26,25.33-36.57,54.42
			c2.11,9.19,8.29,21.39,25.72,27.28c8.17,2.76,17.84,3.86,30.41,3.43c0.01,0,0.02,0,0.03,0c0,0,0,0,0.01,0c0.03,0,0.06,0,0.08,0
			c0,0,0,0,0,0c0,0,0,0,0.01,0c0,0,0.01,0,0.01,0c33.8-1.41,36.13,7.66,37.01,11.08c0,0,0,0.01,0,0.01c0,0,0,0,0,0
			c0.73,2.86,1.05,7.16-1.53,11.46c-3.06,5.09-9.39,8.96-18.38,11.26c-0.5,0.13-1.01,0.25-1.52,0.37c-0.03,0.01-0.05,0.01-0.08,0.02
			c-15.71,3.56-28.32,0.4-39.6-3.55c-6.97-2.44-14.51,1.3-16.87,8.31c-2.36,7.02,1.36,14.69,8.32,17.12
			c14.3,5,31.93,9.43,54.22,4.36c0,0,0.01,0,0.01,0c0.02,0,0.04-0.01,0.05-0.01c0,0,0,0,0.01,0c0.72-0.16,1.42-0.33,2.12-0.51
			c19.93-5.09,29.74-15.38,34.48-23.26c5.77-9.59,7.38-21,4.54-32.14l0,0c-1.61-6.31-7.37-10.44-13.54-10.16
			c6.18-0.28,11.94,3.85,13.55,10.16c-2.3-9.02-8.6-21.06-25.53-27.21c-9.73-3.54-21.93-4.87-38.39-4.19c0,0,0,0,0,0
			c-0.02,0-0.03,0-0.05,0c-26.7,0.89-29.11-8.63-29.99-15.69C213.77,211.65,219.03,205.65,235.99,202.27z"/>
		<path class="st1" d="M309.54,136.66c-51.46-20.35-111.81-7.7-142.66,29.9c-26.29,34.93-30.01,84.59-4.61,121.14
			c2.64,3.81,5.7,7.55,9.89,9.54c4.18,2,9.74,1.77,12.87-1.65c5.89-6.44-0.47-14.67-4.17-20.23c-5.15-7.74-9.36-15.79-12.04-24.72
			c-5.12-17.04-5.02-35.72,0.8-52.57c1.53-4.43,3.44-8.74,5.82-12.78c17.74-30.1,55.01-38.79,87.64-36.87
			c33.04,1.95,63.35,17.56,84.53,42.94c35.3,42.29,40.56,89.48,17.84,139.7c-2.28,5.03-5.18,9.81-7.18,14.94
			c-1.58,4.06-1.21,8.43,2.99,10.95c4.16,2.5,8.3,0.93,11.23-2.27c3.23-3.54,6.03-7.57,8.45-11.72
			C424.45,268.19,389.9,168.43,309.54,136.66z"/>
		<path class="st1" d="M325.34,375.26c-2.6,0.92-5.06,2.26-7.61,3.34c-62.83,26.52-140.3,16.01-189.87-32.74
			c-5.09-5.01-11.5-10.83-18.34-8.79c-6.01,1.79-8.74,9.38-7.06,15.42c1.68,6.04,6.57,10.63,11.7,14.24
			c18.49,12.99,36.03,27.84,57.24,36.35c22.09,8.87,45.78,13.16,69.52,13.81c4.85,0,9.73,0.31,14.55-0.05
			c28.01-2.09,54.66-9.03,79.14-23.11c6.19-3.56,12.3-8.54,7.54-16.61C338.04,370.17,331.25,373.16,325.34,375.26z"/>
		<path class="st1" d="M179.34,122.21c71.02-31.07,135.01-19.71,192.56,31.47c7.07,6.28,14.78,16.69,24.2,6.08
			c9.18-10.34-1.95-17.71-8.51-24.07c-36.02-34.91-79.48-51.92-129.47-52.67c-31.17-0.57-60.55,6.42-88.11,20.77
			c-7.26,3.78-17.13,8.67-12.29,18.41C163.07,132.96,172.24,125.31,179.34,122.21z"/>
		<path class="st1" d="M327.29,202.79c-3.17-1.65-7.21-2.05-10.28-0.27c-0.13,0.07-0.25,0.15-0.38,0.23
			c-3.7,2.42-4.81,7.52-3.89,11.84c0.92,4.32,3.46,8.09,5.79,11.84c9.44,15.16,16.48,32.46,16.12,50.32
			c-0.37,18.37-8.78,36.18-21.73,49.21c-38.07,38.31-103.5,31.57-143.5-0.21c-49.91-39.65-62.06-102.04-31.87-162.62
			c3.26-6.54,10.12-14.5,1.65-20.24c-8.66-5.87-13.47,3.25-17.73,9.31c-31.98,45.55-27.55,120.28,9.79,167.68
			c43.83,55.64,133.14,71.66,189.51,24.68c20.03-16.69,33.04-41.95,34.85-67.96c1.64-23.57-5.7-47.65-20.21-66.29
			C333.14,207.39,330.6,204.51,327.29,202.79z"/>
	</g>
</g>
</svg>
